<svg width="15" height="15" viewBox="0 0 15 15" fill="none" xmlns="http://www.w3.org/2000/svg">
<path d="M10.6366 10.6655C10.4792 10.6655 10.3282 10.6053 10.2169 10.4981C10.1056 10.391 10.0431 10.2456 10.0431 10.0941V4.95121H4.70187C4.54447 4.95121 4.39352 4.891 4.28222 4.78384C4.17092 4.67668 4.1084 4.53133 4.1084 4.37978C4.1084 4.22823 4.17092 4.08288 4.28222 3.97572C4.39352 3.86855 4.54447 3.80835 4.70187 3.80835H10.6366C10.794 3.80835 10.9449 3.86855 11.0562 3.97572C11.1675 4.08288 11.2301 4.22823 11.2301 4.37978V10.0941C11.2301 10.2456 11.1675 10.391 11.0562 10.4981C10.9449 10.6053 10.794 10.6655 10.6366 10.6655Z" fill="#1D1E2C"/>
<path d="M4.70174 10.6654C4.58438 10.6654 4.46967 10.6319 4.37209 10.5691C4.27452 10.5063 4.19848 10.4171 4.15357 10.3127C4.10866 10.2083 4.09691 10.0934 4.1198 9.98256C4.14268 9.87173 4.19919 9.76992 4.28216 9.69L10.2169 3.97572C10.3285 3.87017 10.4789 3.81134 10.6354 3.81202C10.7918 3.8127 10.9416 3.87284 11.0523 3.97936C11.1629 4.08588 11.2254 4.23015 11.2261 4.38079C11.2268 4.53143 11.1657 4.67624 11.056 4.78372L5.12133 10.498C5.0663 10.5512 5.0009 10.5933 4.92889 10.622C4.85688 10.6508 4.77969 10.6655 4.70174 10.6654Z" fill="#1D1E2C"/>
</svg>
