
<svg width="86" height="87" viewBox="0 0 86 87" fill="none" xmlns="http://www.w3.org/2000/svg">
<path fill-rule="evenodd" clip-rule="evenodd" d="M0.0537109 43.2247C0.0537109 19.2388 19.756 0.318481 42.9599 0.318481C66.6184 0.318481 85.8661 19.5662 85.8661 43.2247C85.8661 66.8832 66.6184 86.1309 42.9599 86.1309C19.368 86.1309 0.0537109 66.9151 0.0537109 43.2247ZM46.8605 62.7275H50.761C60.7727 62.7275 66.2759 50.8279 59.4192 43.2247C66.2759 35.6214 60.7727 23.7219 50.761 23.7219H46.8605V19.8213C46.8605 14.6585 39.0593 14.6796 39.0593 19.8213V23.7219H27.3577C22.1949 23.7219 22.2159 31.523 27.3577 31.523H31.2582V54.9264H27.3577C22.1949 54.9264 22.2159 62.7275 27.3577 62.7275H39.0593V66.6281C39.0593 71.7908 46.8605 71.7698 46.8605 66.6281V62.7275ZM50.7661 31.5228H39.0644V39.3239H50.7661C55.9221 39.3239 55.9221 31.5228 50.7661 31.5228ZM50.7661 47.1248H39.0644V54.926H50.7661C55.9221 54.926 55.9221 47.1248 50.7661 47.1248Z" fill="white"/>

</svg>
