<svg width="87" height="87" viewBox="0 0 87 87" fill="none" xmlns="http://www.w3.org/2000/svg">
<path fill-rule="evenodd" clip-rule="evenodd" d="M43.5278 86.1309C67.2242 86.1309 86.434 66.9211 86.434 43.2247C86.434 19.5282 67.2242 0.318481 43.5278 0.318481C19.8313 0.318481 0.621582 19.5282 0.621582 43.2247C0.621582 66.9211 19.8313 86.1309 43.5278 86.1309ZM36.3773 28.9225C36.3773 32.8719 33.1757 36.0736 29.2263 36.0736C25.2769 36.0736 22.0753 32.8719 22.0753 28.9225C22.0753 24.9731 25.2769 21.7715 29.2263 21.7715C33.1757 21.7715 36.3773 24.9731 36.3773 28.9225ZM64.9814 28.9225C64.9814 32.8719 61.7798 36.0736 57.8304 36.0736C53.881 36.0736 50.6794 32.8719 50.6794 28.9225C50.6794 24.9731 53.881 21.7715 57.8304 21.7715C61.7798 21.7715 64.9814 24.9731 64.9814 28.9225ZM64.9814 57.5267C64.9814 61.4761 61.7798 64.6777 57.8304 64.6777C53.881 64.6777 50.6794 61.4761 50.6794 57.5267C50.6794 53.5773 53.881 50.3756 57.8304 50.3756C61.7798 50.3756 64.9814 53.5773 64.9814 57.5267ZM36.3773 57.5267C36.3773 61.4761 33.1757 64.6777 29.2263 64.6777C25.2769 64.6777 22.0753 61.4761 22.0753 57.5267C22.0753 53.5773 25.2769 50.3756 29.2263 50.3756C33.1757 50.3756 36.3773 53.5773 36.3773 57.5267Z" fill="white"/>
</svg>
