<svg width="161" height="139" viewBox="0 0 161 139" fill="none" xmlns="http://www.w3.org/2000/svg">
<g opacity="0.24" filter="url(#filter0_f_27_4190)">
<ellipse cx="107.785" cy="60.493" rx="25.2156" ry="24.8956" fill="#FF7EFA" fill-opacity="0.98"/>
</g>
<path d="M64.0576 136.036L89.6934 121.044V91.5991L64.0576 107.047V136.036Z" fill="url(#paint0_linear_27_4190)"/>
<path d="M64.0736 136.264L39.5693 122.414V92.0234L64.0736 107.302V136.264Z" fill="url(#paint1_linear_27_4190)"/>
<path opacity="0.4" d="M60.1901 129.252L43.4531 119.792V99.0349L60.1901 109.47V129.252Z" stroke="url(#paint2_linear_27_4190)" stroke-width="0.864"/>
<path opacity="0.405357" d="M64.5767 99.218L51.9821 92.0115L0 0H66.7511L75.372 92.0115L64.5767 99.218Z" fill="url(#paint3_linear_27_4190)"/>
<path opacity="0.405357" d="M75.3713 92.1046L100.56 6.74829H51.9814L69.9736 102.774L75.3713 92.1046Z" fill="url(#paint4_linear_27_4190)"/>
<path d="M88.2091 56.5465C91.2217 54.5818 93.3431 54.3678 94.6362 55.2786L96.6774 56.3449L96.1989 57.0329C97.7597 61.6926 93.7312 72.3175 85.2758 77.3685C83.4957 78.4319 82.0341 78.9658 80.8686 79.0746L80.4256 79.7115L78.9534 78.771C74.4888 76.4864 78.7125 62.74 88.2091 56.5465Z" fill="#D7911D"/>
<path d="M90.6664 57.5527C78.3031 65.6488 74.2243 86.5 87.3605 78.6207C100.497 70.7413 103.03 49.4567 90.6664 57.5527Z" fill="url(#paint5_linear_27_4190)"/>
<path opacity="0.4" d="M90.0044 60.7512C81.1514 66.7383 78.4055 81.7047 87.8119 75.8778C97.2183 70.0509 98.8573 54.764 90.0044 60.7512Z" stroke="#D7911D" stroke-width="0.5"/>
<path d="M26.3679 52.2877C22.8166 52.8572 20.7916 52.1899 19.9808 50.8319L18.5497 49.0275L19.2667 48.5936C19.7361 43.702 27.7379 35.6342 37.5167 34.459C39.5754 34.2116 41.1277 34.3183 42.2368 34.6929L42.9005 34.2912L43.8629 35.7492C47.0124 39.6523 37.5627 50.4923 26.3679 52.2877Z" fill="#D7911D"/>
<path d="M24.5326 50.3698C39.12 48.0023 51.3271 30.6127 36.1217 32.4679C20.9163 34.323 9.94514 52.7373 24.5326 50.3698Z" fill="url(#paint6_linear_27_4190)"/>
<path opacity="0.4" d="M26.4371 47.7162C36.9598 45.8475 45.5557 33.2919 34.5925 34.7891C23.6294 36.2863 15.9143 49.5849 26.4371 47.7162Z" stroke="#D7911D" stroke-width="0.5"/>
<path d="M80.8497 27.2186C80.8393 24.7595 81.5239 23.5124 82.5572 23.1835L83.9685 22.5105L84.1926 23.0569C87.5461 24.1348 92.2915 30.7361 92.0465 37.446C91.9949 38.8586 91.7519 39.8779 91.3706 40.5595L91.578 41.0653L90.4587 41.4796C87.3999 42.9714 80.8824 34.9704 80.8497 27.2186Z" fill="#D7911D"/>
<path d="M82.2754 26.45C82.3376 36.5554 93.1137 47.4205 93.4753 36.9827C93.8369 26.545 82.2132 16.3446 82.2754 26.45Z" fill="url(#paint7_linear_27_4190)"/>
<path opacity="0.3" d="M83.5138 27.6235C83.5621 35.4802 91.9403 43.9274 92.2214 35.8124C92.5025 27.6973 83.4654 19.7668 83.5138 27.6235Z" stroke="#D7911D" stroke-width="0.5"/>
<path d="M39.5693 92.2568L64.7339 78.45L89.3137 91.8326L64.0988 107.217L39.5693 92.2568Z" fill="url(#paint8_linear_27_4190)"/>
<path d="M52.0293 92.5825L64.6348 85.6606L76.9474 92.3699L64.3167 100.082L52.0293 92.5825Z" fill="url(#paint9_linear_27_4190)"/>
<g opacity="0.405357" filter="url(#filter1_f_27_4190)">
<ellipse cx="87.2583" cy="115.48" rx="16.1109" ry="15.9064" fill="#FFC37E" fill-opacity="0.98"/>
</g>
<g opacity="0.405357" filter="url(#filter2_f_27_4190)">
<ellipse cx="34.9061" cy="96.5507" rx="15.3094" ry="15.1152" fill="#FF7E95" fill-opacity="0.98"/>
</g>
<path d="M64.917 92.0233V69.0239L75.2235 61.0708C75.4355 60.9072 75.5597 60.6546 75.5597 60.3868V45.3645" stroke="url(#paint10_linear_27_4190)" stroke-width="0.864"/>
<path d="M64.8805 68.9476V58.7255C64.8805 58.2483 64.4936 57.8615 64.0165 57.8615H55.8955V45.7888" stroke="url(#paint11_linear_27_4190)" stroke-width="0.864"/>
<ellipse cx="56.1091" cy="46.0011" rx="1.9333" ry="1.90877" fill="url(#paint12_linear_27_4190)"/>
<ellipse cx="75.4421" cy="46.0011" rx="1.9333" ry="1.90877" fill="url(#paint13_linear_27_4190)"/>
<ellipse cx="65.1325" cy="68.482" rx="1.9333" ry="1.90877" fill="url(#paint14_linear_27_4190)"/>
<path d="M38.0121 62.1627C39.449 59.3694 40.9648 58.3118 42.3374 58.4765L44.3442 58.4479L44.278 59.1838C47.4691 62.1506 48.9942 72.1035 44.7617 79.5831C43.8706 81.1577 42.9929 82.1869 42.1563 82.7612L42.095 83.4425L40.5737 83.3299C36.205 83.4297 33.4826 70.968 38.0121 62.1627Z" fill="#D7911D"/>
<path d="M40.0913 62.0328C34.2088 73.5217 40.1027 91.446 46.6645 79.8009C53.2262 68.1557 45.9738 50.5439 40.0913 62.0328Z" fill="url(#paint15_linear_27_4190)"/>
<path opacity="0.4" d="M40.9336 64.3407C36.5806 72.8424 40.9421 86.1065 45.7978 77.489C50.6535 68.8716 45.2867 55.8389 40.9336 64.3407Z" stroke="#D7911D" stroke-width="0.5"/>
<path opacity="0.2" fill-rule="evenodd" clip-rule="evenodd" d="M49.0303 72.6431C49.022 72.6469 49.0137 72.6508 49.0054 72.6547C45.0087 74.5279 41.6441 77.6458 39.2673 80.9256C40.9423 84.3059 43.7374 84.9974 46.6655 79.801C47.932 77.5532 48.6839 75.0832 49.0303 72.6431Z" fill="black"/>
<defs>
<filter id="filter0_f_27_4190" x="54.5693" y="7.59741" width="106.431" height="105.791" filterUnits="userSpaceOnUse" color-interpolation-filters="sRGB">
<feFlood flood-opacity="0" result="BackgroundImageFix"/>
<feBlend mode="normal" in="SourceGraphic" in2="BackgroundImageFix" result="shape"/>
<feGaussianBlur stdDeviation="14" result="effect1_foregroundBlur_27_4190"/>
</filter>
<filter id="filter1_f_27_4190" x="64.1475" y="92.5737" width="46.2217" height="45.8127" filterUnits="userSpaceOnUse" color-interpolation-filters="sRGB">
<feFlood flood-opacity="0" result="BackgroundImageFix"/>
<feBlend mode="normal" in="SourceGraphic" in2="BackgroundImageFix" result="shape"/>
<feGaussianBlur stdDeviation="3.5" result="effect1_foregroundBlur_27_4190"/>
</filter>
<filter id="filter2_f_27_4190" x="2.59668" y="64.4355" width="64.6191" height="64.2305" filterUnits="userSpaceOnUse" color-interpolation-filters="sRGB">
<feFlood flood-opacity="0" result="BackgroundImageFix"/>
<feBlend mode="normal" in="SourceGraphic" in2="BackgroundImageFix" result="shape"/>
<feGaussianBlur stdDeviation="8.5" result="effect1_foregroundBlur_27_4190"/>
</filter>
<linearGradient id="paint0_linear_27_4190" x1="79.1872" y1="39.9162" x2="-1.28802" y2="68.1036" gradientUnits="userSpaceOnUse">
<stop stop-color="#EDB64F"/>
<stop offset="1" stop-color="#DD26BC"/>
</linearGradient>
<linearGradient id="paint1_linear_27_4190" x1="76.5439" y1="114.332" x2="28.0609" y2="85.0613" gradientUnits="userSpaceOnUse">
<stop stop-color="#6B1B98"/>
<stop offset="1" stop-color="#DE0F62"/>
</linearGradient>
<linearGradient id="paint2_linear_27_4190" x1="41.5378" y1="91.4806" x2="20.8876" y2="119.592" gradientUnits="userSpaceOnUse">
<stop stop-color="#FFD599"/>
<stop offset="0.482372" stop-color="#D178A0"/>
<stop offset="1" stop-color="#FFCE08"/>
</linearGradient>
<linearGradient id="paint3_linear_27_4190" x1="18.9531" y1="10.5824" x2="18.9531" y2="140.581" gradientUnits="userSpaceOnUse">
<stop stop-color="#FDF27D" stop-opacity="0.01"/>
<stop offset="0.4936" stop-color="#FCF17B" stop-opacity="0.240234"/>
<stop offset="1" stop-color="#FBF079"/>
</linearGradient>
<linearGradient id="paint4_linear_27_4190" x1="42.6588" y1="17.4952" x2="42.6588" y2="110.7" gradientUnits="userSpaceOnUse">
<stop stop-color="#FDF27D" stop-opacity="0.01"/>
<stop offset="0.4936" stop-color="#FCF17B" stop-opacity="0.240234"/>
<stop offset="1" stop-color="#FBF079"/>
</linearGradient>
<linearGradient id="paint5_linear_27_4190" x1="76.2665" y1="51.4121" x2="65.721" y2="82.3379" gradientUnits="userSpaceOnUse">
<stop stop-color="#FFF585"/>
<stop offset="1" stop-color="#DCC613"/>
</linearGradient>
<linearGradient id="paint6_linear_27_4190" x1="35.1899" y1="61.8365" x2="57.4023" y2="37.8736" gradientUnits="userSpaceOnUse">
<stop stop-color="#FFF585"/>
<stop offset="1" stop-color="#DCC613"/>
</linearGradient>
<linearGradient id="paint7_linear_27_4190" x1="73.1362" y1="31.7701" x2="86.4588" y2="50.9921" gradientUnits="userSpaceOnUse">
<stop stop-color="#FFF585"/>
<stop offset="1" stop-color="#DCC613"/>
</linearGradient>
<linearGradient id="paint8_linear_27_4190" x1="81.9465" y1="59.2243" x2="32.6081" y2="115.183" gradientUnits="userSpaceOnUse">
<stop stop-color="#EDB64F"/>
<stop offset="0.977895" stop-color="#E64082"/>
</linearGradient>
<linearGradient id="paint9_linear_27_4190" x1="71.9971" y1="84.0865" x2="41.6394" y2="84.0865" gradientUnits="userSpaceOnUse">
<stop stop-color="#FFD066"/>
<stop offset="1" stop-color="#CE1D64"/>
</linearGradient>
<linearGradient id="paint10_linear_27_4190" x1="63.6991" y1="33.6998" x2="35.1928" y2="49.6805" gradientUnits="userSpaceOnUse">
<stop stop-color="#FFD599"/>
<stop offset="0.482372" stop-color="#D178A0"/>
<stop offset="1" stop-color="#FFE26F"/>
</linearGradient>
<linearGradient id="paint11_linear_27_4190" x1="50.9145" y1="42.6927" x2="36.2623" y2="87.5249" gradientUnits="userSpaceOnUse">
<stop stop-color="#FFD599"/>
<stop offset="1" stop-color="#A014A8"/>
</linearGradient>
<linearGradient id="paint12_linear_27_4190" x1="63.379" y1="51.2063" x2="59.5989" y2="40.6376" gradientUnits="userSpaceOnUse">
<stop stop-color="#FFFCF5"/>
<stop offset="1" stop-color="#FFEFAD"/>
</linearGradient>
<linearGradient id="paint13_linear_27_4190" x1="82.712" y1="51.2063" x2="78.9319" y2="40.6376" gradientUnits="userSpaceOnUse">
<stop stop-color="#FFFCF5"/>
<stop offset="1" stop-color="#FFEFAD"/>
</linearGradient>
<linearGradient id="paint14_linear_27_4190" x1="72.4024" y1="73.6873" x2="68.6223" y2="63.1186" gradientUnits="userSpaceOnUse">
<stop stop-color="#FFFCF5"/>
<stop offset="1" stop-color="#FFEFAD"/>
</linearGradient>
<linearGradient id="paint15_linear_27_4190" x1="26.5298" y1="63.3092" x2="31.4219" y2="91.8586" gradientUnits="userSpaceOnUse">
<stop stop-color="#FFF585"/>
<stop offset="1" stop-color="#DCC613"/>
</linearGradient>
</defs>
</svg>
