<svg width="1254" height="525" viewBox="0 0 1254 525" fill="none" xmlns="http://www.w3.org/2000/svg">
<g filter="url(#filter0_b_28_4826)">
<path d="M166.946 381.008L166.687 380.042L165.721 380.301L165.98 381.266L166.946 381.008ZM215.629 367.963L216.595 367.704L216.336 366.738L215.37 366.997L215.629 367.963ZM237.245 448.637L238.018 449.272L238.344 448.875L238.211 448.378L237.245 448.637ZM103.583 497.273L103.356 498.247L103.365 498.249L103.583 497.273ZM55.5027 471.395L56.1966 470.675L55.5027 471.395ZM27.4757 366.797L26.5148 366.52L27.4757 366.797ZM56.528 320.55L57.2015 321.289L57.208 321.283L56.528 320.55ZM160.361 288.554L160.499 287.563L160.361 288.554ZM203.606 305.291L204.446 305.834L204.969 305.025L204.18 304.472L203.606 305.291ZM177.052 346.397L176.512 347.238L177.351 347.777L177.892 346.939L177.052 346.397ZM87.7092 363.478L88.5706 363.986L88.5752 363.978L87.7092 363.478ZM97.924 434.983L97.1989 435.672L97.2054 435.678L97.924 434.983ZM122.689 449.517L122.43 450.482L122.438 450.485L122.447 450.487L122.689 449.517ZM181.258 434.42L181.897 435.189L182.389 434.78L182.224 434.161L181.258 434.42ZM167.205 381.974L215.888 368.929L215.37 366.997L166.687 380.042L167.205 381.974ZM214.663 368.222L236.279 448.896L238.211 448.378L216.595 367.704L214.663 368.222ZM236.472 448.003C227.559 458.864 216.491 468.342 203.254 476.431L204.297 478.137C217.705 469.943 228.95 460.323 238.018 449.272L236.472 448.003ZM203.254 476.431C190.009 484.525 176.203 490.494 161.834 494.345L162.351 496.277C176.913 492.375 190.896 486.327 204.297 478.137L203.254 476.431ZM161.834 494.345C141.572 499.774 122.233 500.416 103.801 496.297L103.365 498.249C122.145 502.446 141.812 501.78 162.351 496.277L161.834 494.345ZM103.809 496.299C85.3239 491.995 69.4601 483.454 56.1966 470.675L54.8089 472.115C68.3402 485.153 84.5298 493.864 103.356 498.247L103.809 496.299ZM56.1966 470.675C42.941 457.903 33.7206 441.877 28.5458 422.564L26.614 423.082C31.8748 442.715 41.2696 459.07 54.8089 472.115L56.1966 470.675ZM28.5458 422.564C23.371 403.252 23.3428 384.762 28.4367 367.074L26.5148 366.52C21.3119 384.587 21.3532 403.448 26.614 423.082L28.5458 422.564ZM28.4367 367.074C33.532 349.38 43.1135 334.123 57.2015 321.289L55.8546 319.811C41.5028 332.885 31.7161 348.459 26.5148 366.52L28.4367 367.074ZM57.208 321.283C71.2458 308.267 88.5669 298.987 109.199 293.459L108.681 291.527C87.7709 297.13 70.1506 306.555 55.8481 319.817L57.208 321.283ZM109.199 293.459C127.265 288.618 144.269 287.321 160.223 289.544L160.499 287.563C144.241 285.298 126.965 286.627 108.681 291.527L109.199 293.459ZM160.223 289.544C176.179 291.767 190.444 297.291 203.033 306.11L204.18 304.472C191.32 295.463 176.754 289.828 160.499 287.563L160.223 289.544ZM202.766 304.749L176.212 345.854L177.892 346.939L204.446 305.834L202.766 304.749ZM177.593 345.555C160.329 334.477 142.339 331.406 123.688 336.404L124.205 338.336C142.274 333.494 159.688 336.442 176.512 347.238L177.593 345.555ZM123.688 336.404C106.784 340.933 94.4638 349.779 86.8432 362.978L88.5752 363.978C95.8887 351.311 107.727 342.751 124.205 338.336L123.688 336.404ZM86.8478 362.97C79.1703 375.991 77.6733 391.089 82.2513 408.174L84.1832 407.656C79.717 390.988 81.2146 376.461 88.5706 363.986L86.8478 362.97ZM82.2513 408.174C85.1719 419.074 90.1497 428.249 97.1989 435.672L98.6491 434.294C91.8537 427.139 87.0269 418.269 84.1832 407.656L82.2513 408.174ZM97.2054 435.678C104.205 442.913 112.62 447.85 122.43 450.482L122.949 448.551C113.484 446.011 105.388 441.26 98.6427 434.288L97.2054 435.678ZM122.447 450.487C132.219 452.933 142.565 452.68 153.465 449.759L152.947 447.828C142.334 450.672 132.335 450.9 122.932 448.546L122.447 450.487ZM153.465 449.759C164.17 446.891 173.652 442.035 181.897 435.189L180.619 433.65C172.604 440.305 163.384 445.031 152.947 447.828L153.465 449.759ZM182.224 434.161L167.912 380.749L165.98 381.266L180.292 434.678L182.224 434.161ZM398.089 387.352L398.887 386.75L398.481 386.211L397.83 386.386L398.089 387.352ZM315.746 409.415L315.487 408.45L314.836 408.624L314.753 409.293L315.746 409.415ZM310.583 451.349L310.842 452.314L311.493 452.14L311.575 451.471L310.583 451.349ZM254.389 466.406L253.401 466.252L253.166 467.769L254.648 467.372L254.389 466.406ZM288.171 248.642L287.912 247.676L287.283 247.845L287.183 248.489L288.171 248.642ZM342.417 234.107L343.196 233.479L342.787 232.972L342.159 233.141L342.417 234.107ZM480.833 405.73L481.092 406.696L482.576 406.298L481.612 405.102L480.833 405.73ZM423.527 421.085L422.728 421.687L423.134 422.226L423.786 422.051L423.527 421.085ZM371.071 351.06L371.33 352.026L372.759 351.643L371.871 350.459L371.071 351.06ZM329.338 295.454L330.137 294.854L328.643 292.864L328.345 295.335L329.338 295.454ZM320.998 364.477L320.005 364.357L319.828 365.826L321.257 365.443L320.998 364.477ZM397.83 386.386L315.487 408.45L316.005 410.381L398.348 388.318L397.83 386.386ZM314.753 409.293L309.59 451.226L311.575 451.471L316.738 409.538L314.753 409.293ZM310.324 450.383L254.13 465.44L254.648 467.372L310.842 452.314L310.324 450.383ZM255.377 466.559L289.159 248.795L287.183 248.489L253.401 466.252L255.377 466.559ZM288.43 249.608L342.676 235.073L342.159 233.141L287.912 247.676L288.43 249.608ZM341.639 234.735L480.055 406.358L481.612 405.102L343.196 233.479L341.639 234.735ZM480.574 404.764L423.268 420.119L423.786 422.051L481.092 406.696L480.574 404.764ZM424.325 420.483L398.887 386.75L397.291 387.954L422.728 421.687L424.325 420.483ZM371.871 350.459L330.137 294.854L328.538 296.055L370.272 351.66L371.871 350.459ZM328.345 295.335L320.005 364.357L321.991 364.597L330.33 295.574L328.345 295.335ZM321.257 365.443L371.33 352.026L370.813 350.094L320.739 363.511L321.257 365.443ZM444.271 206.815L444.012 205.849L443.046 206.108L443.305 207.074L444.271 206.815ZM499.352 192.056L500.318 191.798L500.059 190.832L499.093 191.09L499.352 192.056ZM539.827 343.112L538.861 343.371L539.12 344.337L540.086 344.078L539.827 343.112ZM632.741 318.215L633.707 317.957L633.448 316.991L632.482 317.25L632.741 318.215ZM644.444 361.891L644.703 362.857L645.669 362.598L645.41 361.632L644.444 361.891ZM496.449 401.546L495.483 401.805L495.741 402.771L496.707 402.512L496.449 401.546ZM444.529 207.781L499.61 193.022L499.093 191.09L444.012 205.849L444.529 207.781ZM498.386 192.315L538.861 343.371L540.793 342.853L500.318 191.798L498.386 192.315ZM540.086 344.078L633 319.181L632.482 317.25L539.568 342.146L540.086 344.078ZM631.775 318.474L643.478 362.15L645.41 361.632L633.707 317.957L631.775 318.474ZM644.185 360.925L496.19 400.58L496.707 402.512L644.703 362.857L644.185 360.925ZM497.414 401.287L445.237 206.557L443.305 207.074L495.483 401.805L497.414 401.287ZM788.746 282.676L789.544 282.073L789.138 281.535L788.487 281.71L788.746 282.676ZM706.402 304.739L706.144 303.773L705.492 303.948L705.41 304.617L706.402 304.739ZM701.24 346.672L701.498 347.638L702.15 347.464L702.232 346.795L701.24 346.672ZM645.046 361.729L644.058 361.576L643.822 363.093L645.305 362.695L645.046 361.729ZM678.828 143.966L678.569 143L677.939 143.169L677.839 143.813L678.828 143.966ZM733.074 129.431L733.852 128.803L733.444 128.296L732.815 128.465L733.074 129.431ZM871.49 301.054L871.749 302.02L873.233 301.622L872.268 300.426L871.49 301.054ZM814.183 316.409L813.385 317.011L813.791 317.55L814.442 317.375L814.183 316.409ZM761.728 246.384L761.987 247.349L763.416 246.967L762.528 245.783L761.728 246.384ZM719.994 190.778L720.794 190.178L719.3 188.187L719.001 190.658L719.994 190.778ZM711.654 259.801L710.662 259.681L710.484 261.15L711.913 260.767L711.654 259.801ZM788.487 281.71L706.144 303.773L706.661 305.705L789.004 283.641L788.487 281.71ZM705.41 304.617L700.247 346.55L702.232 346.795L707.395 304.862L705.41 304.617ZM700.981 345.706L644.787 360.764L645.305 362.695L701.498 347.638L700.981 345.706ZM646.034 361.883L679.816 144.119L677.839 143.813L644.058 361.576L646.034 361.883ZM679.086 144.932L733.333 130.397L732.815 128.465L678.569 143L679.086 144.932ZM732.296 130.058L870.711 301.682L872.268 300.426L733.852 128.803L732.296 130.058ZM871.231 300.088L813.925 315.443L814.442 317.375L871.749 302.02L871.231 300.088ZM814.982 315.807L789.544 282.073L787.947 283.278L813.385 317.011L814.982 315.807ZM762.528 245.783L720.794 190.178L719.194 191.379L760.928 246.984L762.528 245.783ZM719.001 190.658L710.662 259.681L712.647 259.921L720.987 190.898L719.001 190.658ZM711.913 260.767L761.987 247.349L761.469 245.418L711.396 258.835L711.913 260.767ZM999.469 266.762L998.809 267.514L999.211 267.866L999.727 267.728L999.469 266.762ZM942.956 217.204L943.616 216.452L942.483 215.458L942.007 216.889L942.956 217.204ZM919.351 288.23L919.61 289.196L920.13 289.056L920.3 288.545L919.351 288.23ZM856.481 305.076L855.546 304.721L854.853 306.547L856.74 306.042L856.481 305.076ZM901.031 187.59L901.966 187.944L902.219 187.278L901.671 186.822L901.031 187.59ZM807.363 109.525L807.104 108.559L805.241 109.058L806.723 110.293L807.363 109.525ZM869.398 92.9027L870.045 92.1397L869.645 91.8012L869.14 91.9367L869.398 92.9027ZM923.402 138.661L922.755 139.424L923.864 140.363L924.345 138.992L923.402 138.661ZM946.734 72.1806L946.476 71.2146L945.966 71.3513L945.791 71.8494L946.734 72.1806ZM1006.27 56.229L1007.2 56.5845L1007.9 54.757L1006.01 55.2631L1006.27 56.229ZM963.583 168.444L962.649 168.088L962.393 168.761L962.95 169.218L963.583 168.444ZM1062.9 249.767L1063.15 250.733L1065.04 250.228L1063.53 248.993L1062.9 249.767ZM1000.13 266.01L943.616 216.452L942.297 217.956L998.809 267.514L1000.13 266.01ZM942.007 216.889L918.402 287.914L920.3 288.545L943.905 217.519L942.007 216.889ZM919.092 287.264L856.222 304.11L856.74 306.042L919.61 289.196L919.092 287.264ZM857.416 305.43L901.966 187.944L900.096 187.235L855.546 304.721L857.416 305.43ZM901.671 186.822L808.003 108.757L806.723 110.293L900.391 188.358L901.671 186.822ZM807.622 110.491L869.657 93.8686L869.14 91.9367L807.104 108.559L807.622 110.491ZM868.752 93.6656L922.755 139.424L924.048 137.898L870.045 92.1397L868.752 93.6656ZM924.345 138.992L947.678 72.5117L945.791 71.8494L922.458 138.33L924.345 138.992ZM946.993 73.1465L1006.53 57.195L1006.01 55.2631L946.476 71.2146L946.993 73.1465ZM1005.33 55.8735L962.649 168.088L964.518 168.799L1007.2 56.5845L1005.33 55.8735ZM962.95 169.218L1062.26 250.541L1063.53 248.993L964.217 167.67L962.95 169.218ZM1062.64 248.801L999.21 265.796L999.727 267.728L1063.15 250.733L1062.64 248.801ZM1158.81 149.229L1157.85 148.957L1157.77 149.222L1157.84 149.488L1158.81 149.229ZM1177.52 219.054L1177.78 220.02L1178.74 219.761L1178.48 218.795L1177.52 219.054ZM1122.44 233.813L1121.47 234.072L1121.73 235.038L1122.69 234.779L1122.44 233.813ZM1103.5 163.154L1104.47 162.895L1104.4 162.628L1104.2 162.436L1103.5 163.154ZM995.982 58.9847L995.723 58.0188L994.019 58.4754L995.286 59.7029L995.982 58.9847ZM1054.12 43.4058L1054.82 42.6884L1054.41 42.293L1053.86 42.4399L1054.12 43.4058ZM1121.02 108.368L1120.33 109.086L1121.53 110.252L1121.99 108.641L1121.02 108.368ZM1146.48 18.6586L1146.22 17.6927L1145.67 17.8396L1145.52 18.3856L1146.48 18.6586ZM1199.89 4.34695L1200.85 4.61978L1201.34 2.92512L1199.63 3.38102L1199.89 4.34695ZM1157.84 149.488L1176.55 219.313L1178.48 218.795L1159.77 148.971L1157.84 149.488ZM1177.26 218.088L1122.18 232.847L1122.69 234.779L1177.78 220.02L1177.26 218.088ZM1123.4 233.554L1104.47 162.895L1102.54 163.413L1121.47 234.072L1123.4 233.554ZM1104.2 162.436L996.678 58.2665L995.286 59.7029L1102.81 163.872L1104.2 162.436ZM996.241 59.9506L1054.38 44.3718L1053.86 42.4399L995.723 58.0188L996.241 59.9506ZM1053.43 44.1233L1120.33 109.086L1121.72 107.651L1054.82 42.6884L1053.43 44.1233ZM1121.99 108.641L1147.44 18.9316L1145.52 18.3856L1120.06 108.095L1121.99 108.641ZM1146.74 19.6245L1200.15 5.31287L1199.63 3.38102L1146.22 17.6927L1146.74 19.6245ZM1198.93 4.07412L1157.85 148.957L1159.77 149.502L1200.85 4.61978L1198.93 4.07412Z" fill="url(#paint0_linear_28_4826)" fill-opacity="0.5"/>
</g>
<defs>
<filter id="filter0_b_28_4826" x="-3.55273" y="-3.54761" width="1260.67" height="531.631" filterUnits="userSpaceOnUse" color-interpolation-filters="sRGB">
<feFlood flood-opacity="0" result="BackgroundImageFix"/>
<feGaussianBlur in="BackgroundImage" stdDeviation="2"/>
<feComposite in2="SourceAlpha" operator="in" result="effect1_backgroundBlur_28_4826"/>
<feBlend mode="normal" in="SourceGraphic" in2="effect1_backgroundBlur_28_4826" result="shape"/>
</filter>
<linearGradient id="paint0_linear_28_4826" x1="573.289" y1="92.1146" x2="664.134" y2="431.155" gradientUnits="userSpaceOnUse">
<stop stop-color="#959FFA"/>
<stop offset="0.530093" stop-color="#FFA7A7"/>
<stop offset="0.800931" stop-color="#FFF256"/>
<stop offset="1" stop-color="#FF3F87"/>
</linearGradient>
</defs>
</svg>
