<svg width="87" height="87" viewBox="0 0 87 87" fill="none" xmlns="http://www.w3.org/2000/svg">
<path d="M43.8867 42.9975C43.8671 42.9975 43.8447 42.9966 43.8242 42.9957C43.8027 42.9966 43.7804 42.9975 43.7607 42.9975C38.4359 42.9975 33.7439 41.6495 30.9711 44.1953C29.3094 45.7229 28.6094 47.5634 28.6094 49.5452C28.6094 57.8234 35.242 58.8397 43.7598 58.8397H43.8867C52.4045 58.8397 59.0371 57.8225 59.0371 49.5452C59.0371 47.5626 58.3372 45.7229 56.6755 44.1953C53.9027 41.6495 49.2116 42.9975 43.8867 42.9975ZM36.6445 54.3096C35.0239 54.3096 33.7099 52.4896 33.7099 50.2451C33.7099 48.0006 35.0239 46.1815 36.6445 46.1815C38.2651 46.1815 39.5809 48.0006 39.5809 50.2451C39.5809 52.4896 38.2651 54.3096 36.6445 54.3096ZM51.0029 54.3096C49.3814 54.3096 48.0665 52.4896 48.0665 50.2451C48.0665 48.0006 49.3814 46.1815 51.0029 46.1815C52.6226 46.1815 53.9375 48.0006 53.9375 50.2451C53.9375 52.4896 52.6235 54.3096 51.0029 54.3096ZM43.8242 0.318359C20.1265 0.318359 0.917969 19.5278 0.917969 43.2246C0.917969 66.9213 20.1265 86.1308 43.8242 86.1308C67.52 86.1308 86.7304 66.9213 86.7304 43.2246C86.7304 19.5278 67.52 0.318359 43.8242 0.318359ZM47.7376 60.8349C46.9688 60.8349 45.4403 60.8367 43.8242 60.8384C42.2071 60.8367 40.6777 60.8349 39.9099 60.8349C36.5104 60.8349 23.0486 60.5747 23.0486 44.3473C23.0486 40.6135 24.3287 37.8818 26.423 35.6069C26.0887 34.7819 26.0717 30.0962 27.855 25.6107C27.855 25.6107 31.9454 26.0594 38.1346 30.3062C39.4316 29.9478 41.6279 29.769 43.8242 29.769C46.0186 29.769 48.2149 29.9469 49.5137 30.3062C55.702 26.0594 59.7915 25.6107 59.7915 25.6107C61.5748 30.0962 61.5587 34.7819 61.2244 35.6069C63.3197 37.8818 64.5997 40.6144 64.5997 44.3473C64.5997 60.5747 51.137 60.8349 47.7376 60.8349Z" fill="white"/>
</svg>
