<svg width="70" height="70" viewBox="0 0 70 70" fill="none" xmlns="http://www.w3.org/2000/svg">
<path d="M35 70C54.33 70 70 54.33 70 35C70 15.67 54.33 0 35 0C15.67 0 0 15.67 0 35C0 54.33 15.67 70 35 70Z" fill="url(#paint0_linear_138_414)"/>
<path d="M32.9421 63.994C50.0917 63.994 63.9941 49.9223 63.9941 32.564C63.9941 15.2057 50.0917 1.13403 32.9421 1.13403C15.7926 1.13403 1.89014 15.2057 1.89014 32.564C1.89014 49.9223 15.7926 63.994 32.9421 63.994Z" fill="#E33953"/>
<path d="M61.5999 24.514C61.5999 23.467 61.184 22.4628 60.4436 21.7224C59.7032 20.982 58.699 20.566 57.6519 20.566C57.3257 20.5647 57.0008 20.6071 56.6859 20.692C54.9232 15.2435 51.4909 10.4876 46.8752 7.09804C42.2595 3.70849 36.6943 1.85707 30.9679 1.80603C15.9599 1.80603 3.7939 14.406 3.7939 30.072C3.72579 35.9216 5.48065 41.6474 8.81484 46.4542C12.149 51.2611 16.8971 54.9106 22.3999 56.896C22.3159 57.1873 22.2735 57.4889 22.2739 57.792C22.2885 58.6576 22.6272 59.4863 23.2231 60.1142C23.8191 60.7422 24.6289 61.1238 25.4925 61.1836C26.3562 61.2434 27.2109 60.9771 27.8877 60.4372C28.5645 59.8974 29.0142 59.1234 29.1479 58.268C29.7499 58.268 30.3519 58.338 30.9539 58.338C36.6652 58.332 42.2207 56.4752 46.7879 53.046C47.3403 53.611 48.0034 54.0559 48.7357 54.3527C49.468 54.6496 50.2537 54.792 51.0436 54.7712C51.8335 54.7503 52.6105 54.5666 53.3261 54.2315C54.0418 53.8964 54.6805 53.4172 55.2023 52.8239C55.7241 52.2305 56.1178 51.5359 56.3588 50.7833C56.5997 50.0308 56.6827 49.2366 56.6024 48.4505C56.5222 47.6644 56.2806 46.9034 55.8927 46.215C55.5047 45.5266 54.9788 44.9258 54.3479 44.45C56.8403 40.0691 58.1434 35.1123 58.1279 30.072C58.1279 29.526 58.1279 28.98 58.1279 28.448C59.0856 28.3256 59.9661 27.859 60.605 27.1351C61.2438 26.4112 61.5975 25.4795 61.5999 24.514Z" fill="#DA3658"/>
<path d="M57.4 23.212C57.4018 22.8571 57.3338 22.5054 57.1997 22.1769C57.0656 21.8484 56.8681 21.5495 56.6185 21.2973C56.3689 21.0451 56.0721 20.8445 55.7449 20.707C55.4178 20.5695 55.0668 20.4978 54.712 20.496C53.3481 16.3561 50.9599 12.6281 47.7692 9.65854C44.5785 6.68895 40.6889 4.57412 36.4618 3.51057C32.2348 2.44702 27.8075 2.46926 23.5914 3.57523C19.3753 4.6812 15.5071 6.835 12.3464 9.83649C9.18572 12.838 6.83504 16.5897 5.51283 20.7431C4.19063 24.8965 3.93979 29.3168 4.78365 33.5931C5.62751 37.8694 7.53866 41.863 10.3395 45.2028C13.1404 48.5426 16.74 51.1201 20.804 52.696C20.7826 52.9241 20.7826 53.1538 20.804 53.382C20.8082 54.1706 21.0968 54.9312 21.6168 55.5242C22.1367 56.1172 22.8531 56.5027 23.6345 56.6099C24.4158 56.7171 25.2096 56.5389 25.8701 56.108C26.5305 55.677 27.0134 55.0223 27.23 54.264C28.22 54.3766 29.2156 54.4327 30.212 54.432C35.2922 54.4428 40.2617 52.9471 44.492 50.134C44.9576 50.6338 45.5191 51.035 46.1428 51.3135C46.7666 51.592 47.44 51.7423 48.1231 51.7554C48.8061 51.7685 49.4848 51.6441 50.1188 51.3897C50.7527 51.1352 51.3291 50.7559 51.8136 50.2743C52.298 49.7926 52.6807 49.2185 52.9388 48.586C53.197 47.9535 53.3253 47.2755 53.3162 46.5924C53.3071 45.9094 53.1608 45.2351 52.8859 44.6097C52.611 43.9843 52.2131 43.4205 51.716 42.952C54.5378 38.6952 56.0291 33.695 56 28.588C56.0011 27.6102 55.945 26.6332 55.832 25.662C56.2998 25.4457 56.696 25.1001 56.9738 24.666C57.2516 24.2319 57.3995 23.7274 57.4 23.212Z" fill="url(#paint1_linear_138_414)"/>
<path d="M47.992 50.96C50.4044 50.96 52.36 49.0044 52.36 46.592C52.36 44.1796 50.4044 42.224 47.992 42.224C45.5796 42.224 43.624 44.1796 43.624 46.592C43.624 49.0044 45.5796 50.96 47.992 50.96Z" fill="#DA5B68"/>
<path d="M36.806 26.838C41.1514 26.838 44.674 23.3154 44.674 18.9701C44.674 14.6247 41.1514 11.1021 36.806 11.1021C32.4606 11.1021 28.938 14.6247 28.938 18.9701C28.938 23.3154 32.4606 26.838 36.806 26.838Z" fill="#DA5B68"/>
<path d="M16.0022 26.2221C18.6775 26.2221 20.8462 24.0533 20.8462 21.3781C20.8462 18.7028 18.6775 16.5341 16.0022 16.5341C13.3269 16.5341 11.1582 18.7028 11.1582 21.3781C11.1582 24.0533 13.3269 26.2221 16.0022 26.2221Z" fill="#DA5B68"/>
<path d="M28.1122 40.446C29.1792 40.446 30.0442 39.581 30.0442 38.514C30.0442 37.447 29.1792 36.582 28.1122 36.582C27.0452 36.582 26.1802 37.447 26.1802 38.514C26.1802 39.581 27.0452 40.446 28.1122 40.446Z" fill="#DA5B68"/>
<path d="M34.594 49.91C35.197 49.91 35.686 49.421 35.686 48.818C35.686 48.2149 35.197 47.726 34.594 47.726C33.9909 47.726 33.502 48.2149 33.502 48.818C33.502 49.421 33.9909 49.91 34.594 49.91Z" fill="#DA5B68"/>
<path d="M41.902 40.1521C42.2035 40.1521 42.448 39.9076 42.448 39.6061C42.448 39.3045 42.2035 39.0601 41.902 39.0601C41.6004 39.0601 41.356 39.3045 41.356 39.6061C41.356 39.9076 41.6004 40.1521 41.902 40.1521Z" fill="#DA5B68"/>
<path d="M44.226 34.44C45.8342 34.44 47.138 33.1362 47.138 31.528C47.138 29.9197 45.8342 28.616 44.226 28.616C42.6177 28.616 41.314 29.9197 41.314 31.528C41.314 33.1362 42.6177 34.44 44.226 34.44Z" fill="#DA5B68"/>
<path d="M12.6279 40.432C14.4913 40.432 16.0019 38.9214 16.0019 37.058C16.0019 35.1946 14.4913 33.684 12.6279 33.684C10.7645 33.684 9.25391 35.1946 9.25391 37.058C9.25391 38.9214 10.7645 40.432 12.6279 40.432Z" fill="#DA5B68"/>
<path d="M18.788 12.2221C19.4065 12.2221 19.908 11.7206 19.908 11.1021C19.908 10.4835 19.4065 9.98206 18.788 9.98206C18.1694 9.98206 17.668 10.4835 17.668 11.1021C17.668 11.7206 18.1694 12.2221 18.788 12.2221Z" fill="#DA5B68"/>
<path d="M24.0942 55.552C25.4164 55.552 26.4882 54.4802 26.4882 53.158C26.4882 51.8359 25.4164 50.764 24.0942 50.764C22.772 50.764 21.7002 51.8359 21.7002 53.158C21.7002 54.4802 22.772 55.552 24.0942 55.552Z" fill="#DA5B68"/>
<path d="M54.7259 24.8221C55.6769 24.8221 56.4479 24.0511 56.4479 23.1001C56.4479 22.149 55.6769 21.3781 54.7259 21.3781C53.7749 21.3781 53.0039 22.149 53.0039 23.1001C53.0039 24.0511 53.7749 24.8221 54.7259 24.8221Z" fill="#DA5B68"/>
<defs>
<linearGradient id="paint0_linear_138_414" x1="10.724" y1="10.472" x2="59.962" y2="60.228" gradientUnits="userSpaceOnUse">
<stop stop-color="#E39C72"/>
<stop offset="0.57" stop-color="#DD5467"/>
</linearGradient>
<linearGradient id="paint1_linear_138_414" x1="12.95" y1="12.18" x2="43.512" y2="41.3" gradientUnits="userSpaceOnUse">
<stop stop-color="#E39C72"/>
<stop offset="0.28" stop-color="#E29771"/>
<stop offset="0.6" stop-color="#E1896E"/>
<stop offset="0.94" stop-color="#DE7269"/>
<stop offset="1" stop-color="#DD6E68"/>
</linearGradient>
</defs>
</svg>
