
<svg width="87" height="87" viewBox="0 0 87 87" fill="none" xmlns="http://www.w3.org/2000/svg">
<path fill-rule="evenodd" clip-rule="evenodd" d="M0.351074 43.2247C0.351074 19.519 19.5516 0.318481 43.2573 0.318481C66.9629 0.318481 86.1635 19.519 86.1635 43.2247C86.1635 66.9304 66.9629 86.1309 43.2573 86.1309C19.5516 86.1309 0.351074 66.9304 0.351074 43.2247ZM36.8213 51.8059H48.9781C57.2733 51.8059 63.9953 45.0839 63.9953 36.7887C63.9953 28.4935 57.2733 21.7716 48.9781 21.7716H28.2401V64.6778H36.8213V51.8059ZM36.8175 30.3524H48.9742C52.514 30.3524 55.4101 33.2486 55.4101 36.7883C55.4101 40.3281 52.514 43.2243 48.9742 43.2243H36.8175V30.3524Z" fill="white"/>

</svg>
