
<svg width="87" height="87" viewBox="0 0 87 87" fill="none" xmlns="http://www.w3.org/2000/svg">
<path fill-rule="evenodd" clip-rule="evenodd" d="M0.486816 43.2247C0.486816 19.529 19.6974 0.318481 43.393 0.318481C67.0886 0.318481 86.2992 19.529 86.2992 43.2247C86.2992 66.9203 67.0886 86.1309 43.393 86.1309C19.6974 86.1309 0.486816 66.9203 0.486816 43.2247ZM70.6677 50.6884C70.6677 49.9905 70.594 49.3066 70.479 48.6306C72.6781 47.4578 74.0686 45.1981 74.0713 42.6576C74.0713 38.9117 71.0233 35.8646 67.2783 35.8646C65.5023 35.8646 63.8563 36.5792 62.5974 37.795C57.9666 34.7295 51.696 32.7762 44.7537 32.5278L48.5461 20.5377L58.8112 22.9554C58.8103 22.9795 58.807 23.0024 58.8037 23.0251L58.8037 23.0251C58.8 23.0511 58.7962 23.077 58.7962 23.1046C58.7962 26.1667 61.2876 28.6598 64.3514 28.6598C67.4126 28.6598 69.9049 26.1667 69.9049 23.1046C69.9049 20.0426 67.4126 17.5512 64.3514 17.5512C61.9996 17.5512 59.9963 19.0234 59.1869 21.0899L48.1221 18.4853C47.6402 18.3694 47.1468 18.6485 46.9958 19.1252L42.7688 32.4944C35.5088 32.5822 28.9318 34.5469 24.0982 37.6984C22.8481 36.5458 21.2187 35.8654 19.5078 35.8654C15.7636 35.8654 12.7183 38.9108 12.7183 42.6576C12.7183 45.0831 14.021 47.2971 16.0823 48.506C15.9524 49.2223 15.8663 49.9475 15.8663 50.6884C15.8663 60.7304 28.1566 68.899 43.2657 68.899C58.3757 68.899 70.6677 60.7304 70.6677 50.6884ZM64.3535 26.7578C66.3664 26.7578 68.0037 25.1188 68.0037 23.1041C68.0037 21.0893 66.3664 19.4521 64.3535 19.4521C62.3387 19.4521 60.698 21.0893 60.698 23.1041C60.698 25.1188 62.3387 26.7578 64.3535 26.7578ZM22.5208 38.8249C21.6631 38.1525 20.607 37.7653 19.5079 37.7653C16.8128 37.7653 14.6217 39.96 14.6217 42.6569C14.6217 44.2195 15.3758 45.6609 16.6004 46.5678C17.617 43.6585 19.6791 41.0161 22.5208 38.8249ZM30.0407 47.3186C30.0407 45.0897 31.8544 43.276 34.0833 43.276C36.3122 43.276 38.125 45.0897 38.125 47.3186C38.125 49.5476 36.3131 51.3604 34.0833 51.3604C31.8535 51.3604 30.0407 49.5476 30.0407 47.3186ZM53.2017 59.3034C51.165 61.3418 47.9669 62.3312 43.4265 62.3312C43.4215 62.3312 43.4166 62.3294 43.4116 62.3275C43.4061 62.3254 43.4004 62.3233 43.394 62.3233C43.3903 62.3233 43.3868 62.324 43.3834 62.325C43.3812 62.3257 43.3791 62.3265 43.3769 62.3273C43.3714 62.3292 43.366 62.3312 43.3598 62.3312C38.8194 62.3312 35.6222 61.3418 33.5847 59.3034C33.2142 58.9329 33.2142 58.3316 33.5847 57.9594C33.9569 57.5889 34.5582 57.5889 34.9304 57.9594C36.5923 59.623 39.3488 60.4297 43.3598 60.4297C43.3721 60.4297 43.3818 60.4367 43.394 60.4367C43.4004 60.4367 43.4061 60.4349 43.4116 60.433L43.4131 60.4325C43.4176 60.431 43.422 60.4297 43.4265 60.4297C47.4384 60.4297 50.1958 59.6221 51.8577 57.9594C52.2299 57.5889 52.8312 57.5889 53.2034 57.9594C53.5739 58.3316 53.5739 58.9338 53.2017 59.3034ZM52.7197 51.3604C50.4926 51.3604 48.678 49.5493 48.678 47.3186C48.678 45.088 50.4908 43.276 52.7197 43.276C54.9487 43.276 56.7615 45.0897 56.7615 47.3186C56.7615 49.5476 54.9487 51.3604 52.7197 51.3604ZM64.1413 38.918C65.0157 38.1858 66.1095 37.7653 67.2754 37.7653C69.9739 37.7653 72.1651 39.96 72.1651 42.6569C72.1651 44.3222 71.332 45.8172 69.988 46.7118C69.0039 43.7867 66.9655 41.1267 64.1413 38.918Z" fill="white"/>

</svg>
