<svg width="105" height="104" viewBox="0 0 105 104" fill="none" xmlns="http://www.w3.org/2000/svg">
<g filter="url(#filter0_d_27_4160)">
<circle cx="52.5" cy="46" r="36" fill="white"/>
</g>
<path opacity="0.4" d="M66.6434 43.8274C66.6434 51.9774 60.7267 59.6107 52.6434 61.844C52.0934 61.994 51.4933 61.994 50.9433 61.844C42.86 59.6107 36.9434 51.9774 36.9434 43.8274V36.5107C36.9434 35.1441 37.9767 33.5941 39.2601 33.0774L48.5433 29.2774C50.6267 28.4274 52.9767 28.4274 55.06 29.2774L64.3434 33.0774C65.61 33.5941 66.6601 35.1441 66.6601 36.5107L66.6434 43.8274Z" fill="#13B1E6"/>
<path d="M55.9603 42.7941C55.9603 40.4941 54.0936 38.6274 51.7936 38.6274C49.4936 38.6274 47.627 40.4941 47.627 42.7941C47.627 44.6608 48.8603 46.2108 50.5436 46.7441V51.1274C50.5436 51.8108 51.1103 52.3774 51.7936 52.3774C52.477 52.3774 53.0436 51.8108 53.0436 51.1274V46.7441C54.727 46.2108 55.9603 44.6608 55.9603 42.7941Z" fill="#13B1E6"/>
<defs>
<filter id="filter0_d_27_4160" x="0.5" y="0" width="104" height="104" filterUnits="userSpaceOnUse" color-interpolation-filters="sRGB">
<feFlood flood-opacity="0" result="BackgroundImageFix"/>
<feColorMatrix in="SourceAlpha" type="matrix" values="0 0 0 0 0 0 0 0 0 0 0 0 0 0 0 0 0 0 127 0" result="hardAlpha"/>
<feOffset dy="6"/>
<feGaussianBlur stdDeviation="8"/>
<feColorMatrix type="matrix" values="0 0 0 0 0 0 0 0 0 0.870588 0 0 0 0 0.639216 0 0 0 0.16 0"/>
<feBlend mode="normal" in2="BackgroundImageFix" result="effect1_dropShadow_27_4160"/>
<feBlend mode="normal" in="SourceGraphic" in2="effect1_dropShadow_27_4160" result="shape"/>
</filter>
</defs>
</svg>
