
<svg width="87" height="87" viewBox="0 0 87 87" fill="none" xmlns="http://www.w3.org/2000/svg">
<path d="M43.6894 0.318481C19.9945 0.318481 0.783203 19.5297 0.783203 43.2247C0.783203 66.9196 19.9945 86.1309 43.6894 86.1309C67.3843 86.1309 86.5956 66.9196 86.5956 43.2247C86.5956 19.5244 67.3843 0.318481 43.6894 0.318481ZM65.0352 33.5922L65.0673 34.9598C65.0673 48.9257 54.4428 65.0156 35.0115 65.0156C29.0476 65.0156 23.4965 63.2672 18.8198 60.2691C19.6458 60.3656 20.4877 60.4192 21.3406 60.4192C26.2909 60.4192 30.8443 58.7297 34.4591 55.8979C29.836 55.8122 25.9368 52.7551 24.5907 48.561C25.2396 48.6844 25.894 48.7435 26.5804 48.7435C27.5459 48.7435 28.479 48.6202 29.3639 48.3788C24.5316 47.4026 20.89 43.1389 20.89 38.0224V37.8883C22.3166 38.6821 23.9416 39.154 25.674 39.2131C22.8421 37.3199 20.9757 34.0858 20.9757 30.4226C20.9757 28.4865 21.496 26.6738 22.4023 25.1131C27.6101 31.5061 35.3975 35.7109 44.1772 36.1507C43.9948 35.3783 43.9038 34.5685 43.9038 33.7426C43.9038 27.9128 48.6341 23.1823 54.4694 23.1823C57.505 23.1823 60.2511 24.464 62.1817 26.5182C64.5845 26.0407 66.8478 25.1613 68.8912 23.9545C68.1028 26.4216 66.4295 28.4918 64.2466 29.8004C66.3759 29.5483 68.4193 28.9744 70.3125 28.1378C68.8967 30.2508 67.1 32.1119 65.0352 33.5922Z" fill="white"/>

</svg>
