<svg width="70" height="70" viewBox="0 0 70 70" fill="none" xmlns="http://www.w3.org/2000/svg">
<path d="M70 35C70 44.2826 66.3125 53.185 59.7488 59.7487C53.185 66.3125 44.2826 70 35 70C25.7175 70 16.8151 66.3125 10.2513 59.7487C3.68753 53.185 3.95256e-05 44.2826 3.95256e-05 35C-0.00320781 32.8583 0.193648 30.721 0.588039 28.616C0.581295 28.5602 0.581295 28.5038 0.588039 28.448V28.21C0.770039 27.328 0.96604 26.46 1.21804 25.606V25.41L1.40004 25.2C3.53055 17.9358 7.95439 11.5561 14.0105 7.01396C20.0666 2.47187 27.4299 0.0113263 35 1.07051e-07C43.1463 -0.000636751 51.0376 2.8403 57.314 8.03322C63.5905 13.2262 67.8591 20.4458 69.384 28.448C69.7934 30.608 69.9996 32.8016 70 35Z" fill="#FFB5A5"/>
<path d="M68.2501 35C68.2489 43.5473 64.9562 51.7659 59.0556 57.9497C53.155 64.1334 45.0996 67.8074 36.5617 68.2088C28.0238 68.6102 19.6593 65.7083 13.2044 60.1055C6.74962 54.5027 2.70034 46.6293 1.8972 38.1198C1.09405 29.6103 3.59874 21.1183 8.89131 14.4068C14.1839 7.69521 21.8578 3.27956 30.32 2.07649C38.7822 0.873424 47.3827 2.97534 54.3361 7.9459C61.2896 12.9165 66.0618 20.3739 67.6621 28.77C68.0572 30.8231 68.2541 32.9093 68.2501 35Z" fill="#B90032"/>
<path d="M68.25 35C68.2538 42.931 65.4226 50.6022 60.2673 56.6291C55.1119 62.656 47.9721 66.6417 40.1363 67.8668C32.3005 69.0919 24.2848 67.4758 17.5359 63.3102C10.787 59.1445 5.74928 52.7037 3.33203 45.15C11.004 32.34 23.982 11.27 36.932 10.626C45.962 10.178 56.042 22.512 67.606 28.826C68.0164 30.8589 68.232 32.9262 68.25 35Z" fill="#ED4604"/>
<path d="M66.6958 45.066C64.7937 51.0426 61.2408 56.3597 56.4467 60.4038C51.6527 64.448 45.813 67.0543 39.6014 67.9223C33.3898 68.7902 27.0593 67.8843 21.3404 65.3091C15.6215 62.7339 10.7472 58.5943 7.27979 53.368C11.1508 48.5931 16.0682 44.7726 21.6517 42.2017C27.2351 39.6309 33.3351 38.3787 39.4798 38.542C47.8378 38.696 57.3998 41.328 66.6958 45.066Z" fill="#ED7242"/>
<path d="M58.94 58.7713C60.2521 57.4592 60.7884 55.868 60.1378 55.2174C59.4872 54.5668 57.8961 55.1031 56.5839 56.4153C55.2717 57.7274 54.7354 59.3186 55.3861 59.9692C56.0367 60.6198 57.6278 60.0835 58.94 58.7713Z" fill="white"/>
<path d="M15.8074 10.3075C17.4476 8.66729 18.2498 6.81022 17.5992 6.15961C16.9486 5.509 15.0915 6.31121 13.4513 7.95142C11.8111 9.59162 11.0089 11.4487 11.6595 12.0993C12.3101 12.7499 14.1672 11.9477 15.8074 10.3075Z" fill="white"/>
<path d="M11.522 15.708C12.0168 15.708 12.418 15.2379 12.418 14.658C12.418 14.0781 12.0168 13.608 11.522 13.608C11.0271 13.608 10.626 14.0781 10.626 14.658C10.626 15.2379 11.0271 15.708 11.522 15.708Z" fill="white"/>
<path d="M10.3599 59.7801L10.7379 49.3781L20.4399 45.3601L20.6499 30.3521L23.9399 47.768L13.6639 51.114L10.3599 59.7801Z" fill="#244100"/>
<path d="M10.3599 59.7801L12.0259 50.4841L21.7279 46.4801L20.6499 30.3521L25.2139 48.888L14.9519 52.2201L10.3599 59.7801Z" fill="#7FEAFF"/>
<path d="M10.3599 59.7801L11.5079 49.7421L21.2099 45.738L20.6499 30.3521L24.7099 48.1461L14.4339 51.4781L10.3599 59.7801Z" fill="#879EFF"/>
<path d="M55.3699 15.708L48.4679 21.084L49.1259 37.702L44.1279 20.482L48.4679 16.408L46.5499 1.95996C49.4189 3.11003 52.1251 4.63025 54.5999 6.48196L55.3699 15.708Z" fill="#7FEAFF"/>
<path d="M56.7282 15.7079L49.8262 21.0839L49.1262 37.7019L45.4722 20.4819L49.8262 16.4079L47.9782 2.49194C50.8363 3.6404 53.533 5.15578 56.0002 6.99994L56.7282 15.7079Z" fill="#244100"/>
<path d="M55.9998 15.708L49.0978 21.084V37.702L44.7998 20.482L49.1538 16.408L47.2358 2.21204C50.0953 3.27494 52.8021 4.71067 55.2858 6.48204L55.9998 15.708Z" fill="#879EFF"/>
<path d="M31.052 61.698L35.042 56.938L31.682 52.598L40.222 44.338L26.292 19.824L47.782 46.298L35.812 52.598L37.8 58.618L31.052 61.698Z" fill="#244100"/>
<path d="M31.052 61.698L36.344 57.19L32.984 52.836L41.524 44.576L26.292 19.824L49.084 46.536L37.114 52.836L39.102 58.87L31.052 61.698Z" fill="#7FEAFF"/>
<path d="M31.052 61.698L35.812 56.938L32.452 52.598L40.992 44.338L26.292 19.824L48.552 46.298L36.582 52.598L38.57 58.618L31.052 61.698Z" fill="#879EFF"/>
<path d="M13.5522 14.084L10.8642 25.662L0.658203 28.21C0.854203 27.258 1.0782 26.32 1.3302 25.41C1.4002 25.34 1.4002 25.2 1.4002 25.2L9.5202 23.912L13.5522 14.084Z" fill="#244100"/>
<path d="M13.5521 14.084L11.2001 26.054L0.588066 28.616C0.581322 28.5602 0.581322 28.5038 0.588066 28.448V28.21C0.770066 27.328 0.966066 26.46 1.21807 25.606L9.80007 24.276L13.5521 14.084Z" fill="#7FEAFF"/>
<path d="M13.5522 14.084L11.0742 25.844L0.616211 28.448C0.812211 27.412 1.05021 26.404 1.33021 25.41L9.73021 24.01L13.5522 14.084Z" fill="#879EFF"/>
</svg>
